<svg width="1280" height="520" viewBox="0 0 1280 520" fill="none" xmlns="http://www.w3.org/2000/svg">
  <rect width="1280" height="520" rx="28" fill="#0F172A"/>
  <rect x="48" y="48" width="1184" height="424" rx="24" fill="#111827" stroke="#334155"/>
  <text x="84" y="118" fill="#C4B5FD" font-family="Segoe UI, Arial, sans-serif" font-size="24" font-weight="700">CREATORMEMBERSHIP</text>
  <text x="84" y="174" fill="white" font-family="Segoe UI, Arial, sans-serif" font-size="40" font-weight="800">Local-first membership platform for creators</text>
  <text x="84" y="224" fill="#CBD5E1" font-family="Segoe UI, Arial, sans-serif" font-size="22">Gated access, creator onboarding, payment flow, release discipline, and resilient delivery.</text>
  <rect x="84" y="274" width="212" height="46" rx="12" fill="#7C3AED"/>
  <text x="112" y="304" fill="white" font-family="Segoe UI, Arial, sans-serif" font-size="18" font-weight="700">Membership</text>
  <rect x="312" y="274" width="180" height="46" rx="12" fill="#1D4ED8"/>
  <text x="346" y="304" fill="white" font-family="Segoe UI, Arial, sans-serif" font-size="18" font-weight="700">Access</text>
  <rect x="508" y="274" width="204" height="46" rx="12" fill="#0F766E"/>
  <text x="538" y="304" fill="white" font-family="Segoe UI, Arial, sans-serif" font-size="18" font-weight="700">Local-first</text>
  <rect x="856" y="112" width="304" height="240" rx="18" fill="#020617" stroke="#1E293B"/>
  <rect x="886" y="150" width="126" height="12" rx="6" fill="#22C55E"/>
  <rect x="886" y="184" width="232" height="10" rx="5" fill="#DDD6FE"/>
  <rect x="886" y="214" width="206" height="10" rx="5" fill="#94A3B8"/>
  <rect x="886" y="244" width="178" height="10" rx="5" fill="#475569"/>
  <rect x="886" y="286" width="196" height="18" rx="9" fill="#7C3AED"/>
  <text x="904" y="300" fill="white" font-family="Segoe UI, Arial, sans-serif" font-size="11" font-weight="800">SUBSCRIPTION FLOW</text>
  <text x="84" y="384" fill="#E2E8F0" font-family="Segoe UI, Arial, sans-serif" font-size="18">End-to-end flow: signup → creator → plan → checkout → active access</text>
</svg>
